<svg width="70" height="70" viewBox="0 0 70 70" fill="none" xmlns="http://www.w3.org/2000/svg">
<rect width="70" height="70" rx="35" fill="#E7F1F3"/>
<path d="M25.4 52.5C24.74 52.5 24.1751 52.2663 23.7052 51.7988C23.2351 51.3316 23 50.7699 23 50.1136V19.8864C23 19.25 23.24 18.6932 23.72 18.2159C24.2 17.7386 24.76 17.5 25.4 17.5H42.92C43.58 17.5 44.1451 17.7336 44.6152 18.2008C45.0851 18.6683 45.32 19.2301 45.32 19.8864V25.8523C45.8 25.9318 46.2 26.1565 46.52 26.5264C46.84 26.8966 47 27.3159 47 27.7844V30.7443C47 31.2481 46.84 31.6856 46.52 32.0568C46.2 32.428 45.8 32.6534 45.32 32.733V50.1136C45.32 50.7699 45.0851 51.3316 44.6152 51.7988C44.1451 52.2663 43.58 52.5 42.92 52.5H25.4ZM25.4 50.1136H42.92V19.8864H25.4V50.1136ZM34.16 25.4545C34.48 25.4545 34.76 25.3352 35 25.0966C35.24 24.858 35.36 24.5795 35.36 24.2614C35.36 23.9432 35.24 23.6648 35 23.4261C34.76 23.1875 34.48 23.0682 34.16 23.0682C33.84 23.0682 33.56 23.1875 33.32 23.4261C33.08 23.6648 32.96 23.9432 32.96 24.2614C32.96 24.5795 33.08 24.858 33.32 25.0966C33.56 25.3352 33.84 25.4545 34.16 25.4545Z" fill="#107483"/>
</svg>
