<svg width="33" height="38" viewBox="0 0 33 38" fill="none" xmlns="http://www.w3.org/2000/svg">
<g clip-path="url(#clip0_398_2910)">
<path fill-rule="evenodd" clip-rule="evenodd" d="M16.5 9.26248e-06C13.9451 -0.0033423 11.4751 0.902964 9.54499 2.55194C7.61489 4.20093 6.35476 6.48148 5.99679 8.97342C5.63881 11.4654 6.2071 14.0008 7.59696 16.1126C8.98681 18.2244 11.1046 19.7702 13.5601 20.4653C10.0708 20.8827 7.07826 22.0976 4.82219 24.2883C1.95242 27.0721 0.5 31.2205 0.5 36.6326C0.5 36.9952 0.646248 37.343 0.906573 37.5995C1.1669 37.8559 1.51997 38 1.88813 38C2.25628 38 2.60936 37.8559 2.86968 37.5995C3.13001 37.343 3.27625 36.9952 3.27625 36.6326C3.27625 31.6811 4.60009 28.3417 6.77141 26.2344C8.94566 24.1242 12.1953 23.0303 16.5 23.0303C20.8047 23.0303 24.0543 24.1242 26.2315 26.2344C28.3999 28.3445 29.7237 31.6811 29.7237 36.6326C29.7237 36.9952 29.87 37.343 30.1303 37.5995C30.3906 37.8559 30.7437 38 31.1119 38C31.48 38 31.8331 37.8559 32.0934 37.5995C32.3537 37.343 32.5 36.9952 32.5 36.6326C32.5 31.2205 31.0476 27.075 28.1749 24.2883C25.9247 22.1005 22.9292 20.8827 19.4399 20.4653C21.8872 19.7624 23.9954 18.2142 25.378 16.1044C26.7606 13.9947 27.3251 11.4648 26.9679 8.97835C26.6107 6.49193 25.3558 4.21562 23.4332 2.56662C21.5107 0.917618 19.0492 0.0064103 16.5 9.26248e-06ZM8.68265 10.4356C8.68265 8.39325 9.50626 6.43453 10.9723 4.99036C12.4383 3.54618 14.4267 2.73486 16.5 2.73486C18.5733 2.73486 20.5617 3.54618 22.0277 4.99036C23.4937 6.43453 24.3173 8.39325 24.3173 10.4356C24.3173 12.478 23.4937 14.4367 22.0277 15.8809C20.5617 17.325 18.5733 18.1364 16.5 18.1364C14.4267 18.1364 12.4383 17.325 10.9723 15.8809C9.50626 14.4367 8.68265 12.478 8.68265 10.4356Z" fill="#107483"/>
</g>
<defs>
<clipPath id="clip0_398_2910">
<rect width="32" height="38" fill="white" transform="translate(0.5)"/>
</clipPath>
</defs>
</svg>
